<svg width="1024" height="1024" viewBox="0 0 1024 1024" fill="none" xmlns="http://www.w3.org/2000/svg">
<path fill-rule="evenodd" clip-rule="evenodd" d="M512 954C756.11 954 954 756.11 954 512C954 267.89 756.11 70 512 70C267.89 70 70 267.89 70 512C70 756.11 267.89 954 512 954ZM425.672 234.023C425.672 186.346 464.322 147.695 512 147.695C559.678 147.695 598.328 186.346 598.328 234.023V524.613C598.328 535.615 604.47 545.569 613.578 551.741C661.679 584.339 693.289 639.439 693.289 701.922C693.289 802.045 612.123 883.211 512 883.211C411.877 883.211 330.711 802.045 330.711 701.922C330.711 639.439 362.321 584.339 410.422 551.741C419.53 545.569 425.672 535.615 425.672 524.613V234.023Z" fill="white"/>
<path fill-rule="evenodd" clip-rule="evenodd" d="M512 418.766C480.533 418.766 455.023 444.275 455.023 475.742V547.718C455.023 559.755 447.67 570.386 437.333 576.556C394.675 602.017 366.105 648.633 366.105 701.922C366.105 782.497 431.425 847.816 512 847.816C592.575 847.816 657.895 782.497 657.895 701.922C657.895 648.633 629.325 602.017 586.667 576.556C576.33 570.386 568.977 559.755 568.977 547.718V475.742C568.977 444.275 543.467 418.766 512 418.766Z" fill="#FF5757"/>
<path d="M425.592 664.665C430.485 653.318 437.565 643.045 446.427 634.434C455.29 625.823 465.762 619.042 477.245 614.478L477.249 614.486C465.766 619.05 455.296 625.83 446.434 634.441C437.572 643.051 430.493 653.322 425.601 664.668L425.592 664.665Z" fill="white"/>
<path fill-rule="evenodd" clip-rule="evenodd" d="M472.998 603.791C478.9 601.445 485.586 604.328 487.932 610.23L487.935 610.239C489.062 613.073 489.016 616.239 487.809 619.04C486.601 621.84 484.33 624.047 481.496 625.173C471.417 629.179 462.226 635.131 454.448 642.689C446.669 650.247 440.455 659.263 436.161 669.222C434.954 672.023 432.683 674.229 429.848 675.355C427.014 676.482 423.848 676.436 421.048 675.229L421.039 675.225C415.207 672.71 412.517 665.944 415.032 660.112C420.523 647.378 428.468 635.85 438.413 626.186C448.359 616.523 460.111 608.913 472.998 603.791Z" fill="white"/>
</svg>
